<?xml version="1.0" standalone="no"?>
<!DOCTYPE svg PUBLIC "-//W3C//DTD SVG 20010904//EN"
 "http://www.w3.org/TR/2001/REC-SVG-20010904/DTD/svg10.dtd">
<svg version="1.0" xmlns="http://www.w3.org/2000/svg"
 width="700.000000pt" height="700.000000pt" viewBox="0 0 700.000000 700.000000"
 preserveAspectRatio="xMidYMid meet">
<metadata>
Created by potrace 1.14, written by Peter Selinger 2001-2017
</metadata>
<g transform="translate(0.000000,700.000000) scale(0.100000,-0.100000)"
fill="#000000" stroke="none">
<path d="M3025 6386 l-469 -464 468 -463 c257 -255 470 -465 474 -466 4 -2
219 207 477 463 l470 465 -469 465 c-258 255 -472 464 -476 464 -4 0 -218
-209 -475 -464z"/>
<path d="M1878 5248 c-240 -238 -735 -729 -1099 -1091 l-662 -657 617 -613
c339 -336 834 -827 1099 -1089 l482 -477 21 22 c12 12 222 221 468 465 245
244 446 447 446 451 0 8 -491 500 -1020 1023 l-221 218 248 245 c136 136 418
416 626 623 l379 376 -471 468 c-259 258 -472 468 -474 468 -1 0 -199 -195
-439 -432z"/>
<path d="M4211 5213 l-473 -468 403 -402 c222 -221 504 -501 627 -622 l223
-220 -562 -558 c-309 -307 -589 -586 -624 -621 l-62 -62 384 -383 c211 -210
424 -421 472 -469 l88 -88 702 698 c386 383 881 874 1099 1089 l397 393 -442
437 c-243 241 -712 706 -1042 1033 -329 327 -626 621 -659 653 l-59 58 -472
-468z"/>
<path d="M3021 3966 l-463 -462 437 -435 c241 -238 453 -450 471 -469 l34 -35
197 197 c109 109 322 320 473 469 l274 271 -467 464 c-257 255 -473 464 -479
463 -7 0 -222 -209 -477 -463z"/>
<path d="M3360 1884 c-74 -74 -280 -279 -457 -456 -178 -176 -328 -327 -335
-335 -10 -12 67 -93 457 -479 257 -255 471 -464 475 -464 17 0 942 928 936
938 -4 6 -194 197 -423 424 -229 227 -436 434 -462 461 -25 26 -48 47 -51 46
-3 0 -66 -61 -140 -135z"/>
</g>
</svg>
